<svg width="16" height="16" viewBox="0 0 16 16" fill="none" xmlns="http://www.w3.org/2000/svg">
<path fill-rule="evenodd" clip-rule="evenodd" d="M3.20019 1.4894L3.1924 1.36396C3.1924 0.854159 3.57389 0.433459 4.06697 0.371752L4.1924 0.363961H14.0919L14.1523 0.365773L14.2392 0.374738L14.3686 0.402726L14.4861 0.444644L14.5856 0.494115L14.7106 0.578232L14.799 0.656854L14.8502 0.712027L14.9266 0.8131L14.9846 0.912742L15.032 1.02235L15.064 1.12829L15.0859 1.25446L15.0919 1.36396L15.0919 11.2635C15.0919 11.8157 14.6442 12.2635 14.0919 12.2635C13.5821 12.2635 13.1614 11.882 13.0997 11.3889L13.0919 11.2635L13.0906 3.77944L2.07108 14.799C1.68056 15.1895 1.04739 15.1895 0.65687 14.799C0.266345 14.4085 0.266346 13.7753 0.65687 13.3848L11.6778 2.36381L4.1924 2.36396C3.6826 2.36396 3.2619 1.98248 3.20019 1.4894L3.1924 1.36396L3.20019 1.4894Z" fill="url(#paint0_linear_372_224)"/>
<defs>
<linearGradient id="paint0_linear_372_224" x1="-0.954781" y1="7.14094" x2="15.0547" y2="12.848" gradientUnits="userSpaceOnUse">
<stop offset="0.118519" stop-color="#D4151C"/>
<stop offset="1" stop-color="#D35400"/>
</linearGradient>
</defs>
</svg>
