<svg width="300" height="151" viewBox="0 0 300 151" fill="none" xmlns="http://www.w3.org/2000/svg">
<g clip-path="url(#clip0_75_117)">
<path d="M42.8693 74.8C32.9154 74.7339 24.8811 66.6461 24.8811 56.692C24.8811 46.644 33.062 38.5172 43.1098 38.5839L233.033 39.8452C240.349 39.8937 246.255 45.839 246.255 53.156V76.1507L42.8693 74.8Z" fill="#FFF4F4" fill-opacity="0.2"/>
<path d="M153.071 139.767C191.666 139.767 222.954 108.479 222.954 69.8833C222.954 31.2878 191.666 0 153.071 0C114.475 0 83.1876 31.2878 83.1876 69.8833C83.1876 108.479 114.475 139.767 153.071 139.767Z" fill="url(#paint0_linear_75_117)"/>
<path fill-rule="evenodd" clip-rule="evenodd" d="M179.429 51.954C178.731 42.7227 170.841 39.4722 160.818 38.3881L161.077 25.6084L153.299 25.4509L153.046 37.8938C151.001 37.8524 148.91 37.8503 146.832 37.8494L147.088 25.3243L139.313 25.1658L139.051 37.9417C137.366 37.9419 135.711 37.9395 134.098 37.9077L134.098 37.8681L123.369 37.6461L123.202 45.9542C123.202 45.9542 128.949 45.9616 128.851 46.0654C132.002 46.1305 132.99 47.9806 133.256 49.5652L132.961 64.1239C133.178 64.1295 133.462 64.1443 133.782 64.1948C133.696 64.1932 133.608 64.1913 133.518 64.1894L133.518 64.1893C133.338 64.1854 133.151 64.1814 132.96 64.1791L132.543 84.5744C132.385 85.5632 131.77 87.1324 129.568 87.0914C129.666 87.1816 123.914 86.9749 123.914 86.9749L122.179 96.2334L132.302 96.439C133.432 96.4634 134.551 96.4982 135.658 96.5326L135.661 96.5327L135.663 96.5327C136.4 96.5557 137.132 96.5785 137.858 96.5979L137.598 109.523L145.369 109.682L145.629 96.894C147.762 96.9815 149.826 97.0405 151.842 97.0796L151.579 109.809L159.358 109.967L159.623 97.0645C172.716 96.5803 181.937 93.4719 183.323 81.214C184.442 71.3438 179.88 66.8366 172.493 64.9029C177.05 62.6981 179.952 58.7091 179.429 51.954ZM167.985 79.3708C167.809 88.2327 153.892 87.7561 147.524 87.538L147.524 87.538C146.951 87.5184 146.439 87.5009 146.004 87.4925L146.355 70.3674C146.885 70.3783 147.529 70.3762 148.258 70.3739L148.259 70.3739C154.788 70.3526 168.17 70.3089 167.985 79.3708ZM147.789 62.5676C153.101 62.7632 164.688 63.1897 164.855 55.1341C165.021 46.8951 153.87 46.9635 148.423 46.9969C147.811 47.0007 147.27 47.004 146.826 46.995L146.51 62.5266C146.876 62.534 147.306 62.5499 147.789 62.5676Z" fill="#ECF2FE"/>
<g filter="url(#filter0_b_75_117)">
<path d="M24.9582 87.3544C24.9582 80.4621 30.5453 74.8752 37.4374 74.8752H46.5888H262.062C268.955 74.8752 274.542 80.4621 274.542 87.3544V262.063C274.542 268.955 268.955 274.542 262.062 274.542H37.4374C30.5453 274.542 24.9582 268.955 24.9582 262.063V87.3544Z" fill="#FFDDDD" fill-opacity="0.3"/>
<path d="M24.9582 87.3544C24.9582 80.4621 30.5453 74.8752 37.4374 74.8752H46.5888C39.3786 74.3206 24.9582 69.218 24.9582 53.2446V87.3544Z" fill="#FFDDDD" fill-opacity="0.3"/>
</g>
<path d="M219.945 205.906H274.542V143.51H219.945C201.854 143.51 187.188 157.478 187.188 174.708C187.188 191.938 201.854 205.906 219.945 205.906Z" fill="#FFB2B2" stroke="#FFB2B2" stroke-width="24.9583" stroke-linejoin="round"/>
<rect x="49.9168" y="99.8335" width="199.667" height="153.078" rx="13.3111" fill="#FFF3F3" fill-opacity="0.4"/>
</g>
<defs>
<filter id="filter0_b_75_117" x="-1.664" y="26.6224" width="302.828" height="274.542" filterUnits="userSpaceOnUse" color-interpolation-filters="sRGB">
<feFlood flood-opacity="0" result="BackgroundImageFix"/>
<feGaussianBlur in="BackgroundImageFix" stdDeviation="13.3111"/>
<feComposite in2="SourceAlpha" operator="in" result="effect1_backgroundBlur_75_117"/>
<feBlend mode="normal" in="SourceGraphic" in2="effect1_backgroundBlur_75_117" result="shape"/>
</filter>
<linearGradient id="paint0_linear_75_117" x1="178" y1="4.5" x2="118.5" y2="125" gradientUnits="userSpaceOnUse">
<stop stop-color="#FF842B"/>
<stop offset="1" stop-color="#34FF48"/>
</linearGradient>
<clipPath id="clip0_75_117">
<rect width="299.5" height="299.5" fill="white"/>
</clipPath>
</defs>
</svg>
