<svg width="21" height="17" viewBox="0 0 21 17" fill="none" xmlns="http://www.w3.org/2000/svg">
<path fill-rule="evenodd" clip-rule="evenodd" d="M9.51783 16.3408L9.43465 16.435C9.07416 16.7955 8.50693 16.8232 8.11464 16.5182L8.02043 16.435L1.02043 9.43503L0.979035 9.39107L0.923874 9.32323L0.85221 9.21198L0.798765 9.09926L0.763384 8.99391L0.734446 8.84602L0.727539 8.72792L0.730327 8.65268L0.747779 8.52719L0.777277 8.41578L0.821213 8.3047L0.873535 8.20721L0.947228 8.10247L1.02043 8.02081L8.02043 1.02081C8.41096 0.630289 9.04412 0.630289 9.43465 1.02081C9.79513 1.3813 9.82286 1.94853 9.51783 2.34082L9.43465 2.43503L4.14354 7.72792L19.7275 7.72792C20.2798 7.72792 20.7275 8.17564 20.7275 8.72792C20.7275 9.28021 20.2798 9.72792 19.7275 9.72792L4.14154 9.72792L9.43465 15.0208C9.79513 15.3813 9.82286 15.9485 9.51783 16.3408L9.43465 16.435L9.51783 16.3408Z" fill="black"/>
</svg>
