<svg width="565" height="535" viewBox="0 0 565 535" fill="none" xmlns="http://www.w3.org/2000/svg">
<g clip-path="url(#clip0_14_2)">
<rect width="565" height="535" rx="30" fill="url(#paint0_linear_14_2)"/>
<g filter="url(#filter0_f_14_2)">
<ellipse cx="282.5" cy="268" rx="169.5" ry="156" fill="url(#paint1_linear_14_2)" fill-opacity="0.7"/>
</g>
<g clip-path="url(#clip1_14_2)">
<path d="M175.869 192.8C165.915 192.734 157.881 184.646 157.881 174.692C157.881 164.644 166.062 156.517 176.11 156.584L366.033 157.845C373.349 157.894 379.255 163.839 379.255 171.156V194.151L175.869 192.8Z" fill="#FFF4F4" fill-opacity="0.2"/>
<path d="M286.071 257.767C324.666 257.767 355.954 226.479 355.954 187.883C355.954 149.288 324.666 118 286.071 118C247.475 118 216.188 149.288 216.188 187.883C216.188 226.479 247.475 257.767 286.071 257.767Z" fill="url(#paint2_linear_14_2)"/>
<path fill-rule="evenodd" clip-rule="evenodd" d="M312.429 169.954C311.731 160.723 303.841 157.472 293.818 156.388L294.077 143.608L286.299 143.451L286.046 155.894C284.001 155.852 281.91 155.85 279.832 155.849L280.088 143.324L272.313 143.166L272.051 155.942C270.366 155.942 268.711 155.939 267.098 155.908L267.098 155.868L256.369 155.646L256.202 163.954C256.202 163.954 261.949 163.961 261.851 164.065C265.002 164.13 265.99 165.98 266.256 167.565L265.961 182.124C266.178 182.129 266.462 182.144 266.782 182.195C266.696 182.193 266.608 182.191 266.518 182.189L266.518 182.189C266.338 182.185 266.151 182.181 265.96 182.179L265.543 202.574C265.385 203.563 264.77 205.132 262.568 205.091C262.666 205.182 256.914 204.975 256.914 204.975L255.179 214.233L265.302 214.439C266.432 214.463 267.551 214.498 268.658 214.532L268.661 214.533L268.663 214.533C269.4 214.556 270.132 214.578 270.858 214.598L270.598 227.523L278.369 227.682L278.629 214.894C280.762 214.981 282.826 215.04 284.842 215.08L284.579 227.809L292.358 227.967L292.623 215.064C305.716 214.58 314.937 211.472 316.323 199.214C317.442 189.344 312.88 184.837 305.493 182.903C310.05 180.698 312.952 176.709 312.429 169.954ZM300.985 197.371C300.809 206.233 286.892 205.756 280.524 205.538L280.524 205.538C279.951 205.518 279.439 205.501 279.004 205.492L279.355 188.367C279.885 188.378 280.529 188.376 281.258 188.374L281.259 188.374C287.788 188.352 301.17 188.309 300.985 197.371ZM280.789 180.568C286.101 180.763 297.688 181.19 297.855 173.134C298.021 164.895 286.87 164.963 281.423 164.997C280.811 165.001 280.27 165.004 279.826 164.995L279.51 180.526C279.876 180.534 280.306 180.55 280.789 180.568Z" fill="#ECF2FE"/>
<g filter="url(#filter1_b_14_2)">
<path d="M157.958 205.354C157.958 198.462 163.545 192.875 170.437 192.875H179.589H395.062C401.955 192.875 407.542 198.462 407.542 205.354V380.062C407.542 386.955 401.955 392.542 395.062 392.542H170.437C163.545 392.542 157.958 386.955 157.958 380.062V205.354Z" fill="#FFDDDD" fill-opacity="0.3"/>
<path d="M157.958 205.354C157.958 198.462 163.545 192.875 170.437 192.875H179.589C172.379 192.32 157.958 187.218 157.958 171.244V205.354Z" fill="#FFDDDD" fill-opacity="0.3"/>
</g>
<path d="M352.945 323.906H407.542V261.51H352.945C334.854 261.51 320.188 275.478 320.188 292.708C320.188 309.938 334.854 323.906 352.945 323.906Z" fill="#FFB2B2" stroke="#FFB2B2" stroke-width="24.9583" stroke-linejoin="round"/>
<circle cx="342.65" cy="291.044" r="13.3111" fill="url(#paint3_linear_14_2)"/>
<rect x="182.917" y="217.833" width="199.667" height="153.078" rx="13.3111" fill="#FFF3F3" fill-opacity="0.4"/>
</g>
</g>
<defs>
<filter id="filter0_f_14_2" x="-87" y="-88" width="739" height="712" filterUnits="userSpaceOnUse" color-interpolation-filters="sRGB">
<feFlood flood-opacity="0" result="BackgroundImageFix"/>
<feBlend mode="normal" in="SourceGraphic" in2="BackgroundImageFix" result="shape"/>
<feGaussianBlur stdDeviation="100" result="effect1_foregroundBlur_14_2"/>
</filter>
<filter id="filter1_b_14_2" x="131.336" y="144.622" width="302.828" height="274.542" filterUnits="userSpaceOnUse" color-interpolation-filters="sRGB">
<feFlood flood-opacity="0" result="BackgroundImageFix"/>
<feGaussianBlur in="BackgroundImageFix" stdDeviation="13.3111"/>
<feComposite in2="SourceAlpha" operator="in" result="effect1_backgroundBlur_14_2"/>
<feBlend mode="normal" in="SourceGraphic" in2="effect1_backgroundBlur_14_2" result="shape"/>
</filter>
<linearGradient id="paint0_linear_14_2" x1="51.0383" y1="420.632" x2="455.802" y2="77.4183" gradientUnits="userSpaceOnUse">
<stop offset="0.118519" stop-color="#D4151C"/>
<stop offset="1" stop-color="#D35400"/>
</linearGradient>
<linearGradient id="paint1_linear_14_2" x1="283" y1="218" x2="283" y2="461.5" gradientUnits="userSpaceOnUse">
<stop stop-color="#FF8737"/>
<stop offset="1" stop-color="#FFCDAB"/>
</linearGradient>
<linearGradient id="paint2_linear_14_2" x1="311" y1="122.5" x2="251.5" y2="243" gradientUnits="userSpaceOnUse">
<stop stop-color="#FF842B"/>
<stop offset="1" stop-color="#34FF48"/>
</linearGradient>
<linearGradient id="paint3_linear_14_2" x1="331.744" y1="298.664" x2="354.901" y2="284.932" gradientUnits="userSpaceOnUse">
<stop offset="0.118519" stop-color="#D4151C"/>
<stop offset="1" stop-color="#D35400"/>
</linearGradient>
<clipPath id="clip0_14_2">
<rect width="565" height="535" rx="30" fill="white"/>
</clipPath>
<clipPath id="clip1_14_2">
<rect width="299.5" height="299.5" fill="white" transform="translate(133 118)"/>
</clipPath>
</defs>
</svg>
