<svg width="32" height="22" viewBox="0 0 32 22" fill="none" xmlns="http://www.w3.org/2000/svg">
<g clip-path="url(#clip0_1750_8628)">
<mask id="mask0_1750_8628" style="mask-type:luminance" maskUnits="userSpaceOnUse" x="0" y="0" width="32" height="22">
<path d="M0 0H32V22H0V0Z" fill="white"/>
</mask>
<g mask="url(#mask0_1750_8628)">
<path fill-rule="evenodd" clip-rule="evenodd" d="M0 0V22H32V0H0Z" fill="#2E42A5"/>
<mask id="mask1_1750_8628" style="mask-type:luminance" maskUnits="userSpaceOnUse" x="0" y="0" width="32" height="22">
<path fill-rule="evenodd" clip-rule="evenodd" d="M0 0V22H32V0H0Z" fill="white"/>
</mask>
<g mask="url(#mask1_1750_8628)">
<mask id="mask2_1750_8628" style="mask-type:luminance" maskUnits="userSpaceOnUse" x="0" y="0" width="32" height="22">
<path d="M0 0H32V22H0V0Z" fill="white"/>
</mask>
<g mask="url(#mask2_1750_8628)">
<path d="M-3.5625 20.428L3.4795 23.1588L32.1595 2.96827L35.8745 -1.08889L28.3445 -2.00098L16.6465 6.69911L7.2305 12.5621L-3.5625 20.428Z" fill="white"/>
<path d="M-2.59961 22.3409L0.989391 23.9249L34.5404 -1.46582H29.5034L-2.59861 22.34L-2.59961 22.3409Z" fill="#F50100"/>
<path d="M35.562 20.428L28.52 23.1588L-0.16 2.96827L-3.875 -1.08889L3.655 -2.00098L15.353 6.69911L24.769 12.5621L35.562 20.428Z" fill="white"/>
<path d="M35.3226 21.8011L31.7346 23.3851L17.4486 12.5135L13.2126 11.2998L-4.23242 -1.0752H0.805578L18.2396 11.0065L22.8706 12.4621L35.3226 21.8011Z" fill="#F50100"/>
<path fill-rule="evenodd" clip-rule="evenodd" d="M19.7773 -1.83301H12.2213V7.33366H-1.97266V14.667H12.2213V23.8337H19.7773V14.667H34.0273V7.33366H19.7773V-1.83301Z" fill="#F50100"/>
<mask id="mask3_1750_8628" style="mask-type:luminance" maskUnits="userSpaceOnUse" x="-2" y="-2" width="37" height="26">
<path fill-rule="evenodd" clip-rule="evenodd" d="M19.7773 -1.83301H12.2213V7.33366H-1.97266V14.667H12.2213V23.8337H19.7773V14.667H34.0273V7.33366H19.7773V-1.83301Z" fill="white"/>
</mask>
<g mask="url(#mask3_1750_8628)">
<path d="M12.2213 -1.83268V-3.66602H10.2213V-1.83268H12.2213ZM19.7773 -1.83268H21.7773V-3.66602H19.7773V-1.83268ZM12.2213 7.33398V9.16732H14.2213V7.33398H12.2213ZM-1.97266 7.33398V5.50065H-3.97266V7.33398H-1.97266ZM-1.97266 14.6673H-3.97266V16.5007H-1.97266V14.6673ZM12.2213 14.6673H14.2213V12.834H12.2213V14.6673ZM12.2213 23.834H10.2213V25.6673H12.2213V23.834ZM19.7773 23.834V25.6673H21.7773V23.834H19.7773ZM19.7773 14.6673V12.834H17.7773V14.6673H19.7773ZM34.0273 14.6673V16.5007H36.0273V14.6673H34.0273ZM34.0273 7.33398H36.0273V5.50065H34.0273V7.33398ZM19.7773 7.33398H17.7773V9.16732H19.7773V7.33398ZM12.2213 0.000651121H19.7773V-3.66602H12.2213V0.000651121ZM14.2213 7.33398V-1.83268H10.2213V7.33398H14.2213ZM-1.97266 9.16732H12.2213V5.50065H-1.97266V9.16732ZM0.0273438 14.6673V7.33398H-3.97266V14.6673H0.0273438ZM12.2213 12.834H-1.97266V16.5007H12.2213V12.834ZM14.2213 23.834V14.6673H10.2213V23.834H14.2213ZM19.7773 22.0007H12.2213V25.6673H19.7773V22.0007ZM17.7773 14.6673V23.834H21.7773V14.6673H17.7773ZM34.0273 12.834H19.7773V16.5007H34.0273V12.834ZM32.0273 7.33398V14.6673H36.0273V7.33398H32.0273ZM19.7773 9.16732H34.0273V5.50065H19.7773V9.16732ZM17.7773 -1.83268V7.33398H21.7773V-1.83268H17.7773Z" fill="white"/>
</g>
</g>
</g>
</g>
</g>
<defs>
<clipPath id="clip0_1750_8628">
<rect width="32" height="22" rx="4" fill="white"/>
</clipPath>
</defs>
</svg>
