<svg width="1140" height="285" viewBox="0 0 1140 285" fill="none" xmlns="http://www.w3.org/2000/svg">
<g clip-path="url(#clip0_218_1111)">
<rect width="1140" height="285" rx="20" fill="url(#paint0_linear_218_1111)"/>
<g clip-path="url(#clip1_218_1111)">
<path d="M561.869 208.8C551.915 208.734 543.881 200.646 543.881 190.692C543.881 180.644 552.062 172.517 562.11 172.584L752.033 173.845C759.349 173.894 765.255 179.839 765.255 187.156V210.151L561.869 208.8Z" fill="#FFF4F4" fill-opacity="0.2"/>
<path d="M672.071 273.767C710.667 273.767 741.954 242.479 741.954 203.883C741.954 165.288 710.667 134 672.071 134C633.476 134 602.188 165.288 602.188 203.883C602.188 242.479 633.476 273.767 672.071 273.767Z" fill="url(#paint1_linear_218_1111)"/>
<path fill-rule="evenodd" clip-rule="evenodd" d="M698.43 185.954C697.731 176.723 689.841 173.472 679.818 172.388L680.078 159.608L672.299 159.451L672.046 171.894C670.001 171.852 667.91 171.85 665.832 171.849L666.088 159.324L658.314 159.166L658.051 171.942C656.366 171.942 654.711 171.939 653.099 171.908L653.098 171.868L642.369 171.646L642.202 179.954C642.202 179.954 647.949 179.962 647.851 180.065C651.002 180.131 651.99 181.981 652.257 183.565L651.961 198.124C652.178 198.129 652.462 198.144 652.782 198.195C652.696 198.193 652.608 198.191 652.518 198.189L652.518 198.189C652.338 198.185 652.151 198.181 651.96 198.179L651.543 218.574C651.385 219.563 650.77 221.132 648.568 221.091C648.666 221.182 642.914 220.975 642.914 220.975L641.179 230.233L651.302 230.439C652.432 230.463 653.551 230.498 654.658 230.533L654.661 230.533L654.663 230.533C655.4 230.556 656.132 230.578 656.858 230.598L656.599 243.523L664.369 243.682L664.629 230.894C666.762 230.981 668.826 231.04 670.842 231.08L670.58 243.809L678.358 243.967L678.623 231.065C691.717 230.58 700.937 227.472 702.323 215.214C703.442 205.344 698.88 200.837 691.493 198.903C696.05 196.698 698.952 192.709 698.43 185.954ZM686.985 213.371C686.809 222.233 672.892 221.756 666.524 221.538L666.524 221.538C665.951 221.518 665.44 221.501 665.005 221.492L665.355 204.367C665.885 204.378 666.529 204.376 667.259 204.374L667.259 204.374C673.789 204.353 687.17 204.309 686.985 213.371ZM666.789 196.568C672.102 196.763 683.689 197.19 683.855 189.134C684.022 180.895 672.87 180.963 667.424 180.997C666.811 181.001 666.27 181.004 665.826 180.995L665.51 196.527C665.876 196.534 666.307 196.55 666.789 196.568Z" fill="#ECF2FE"/>
<g filter="url(#filter0_b_218_1111)">
<path d="M543.958 221.354C543.958 214.462 549.545 208.875 556.437 208.875H565.589H781.062C787.955 208.875 793.542 214.462 793.542 221.354V396.063C793.542 402.955 787.955 408.542 781.062 408.542H556.437C549.545 408.542 543.958 402.955 543.958 396.063V221.354Z" fill="#FFDDDD" fill-opacity="0.3"/>
<path d="M543.958 221.354C543.958 214.462 549.545 208.875 556.437 208.875H565.589C558.379 208.321 543.958 203.218 543.958 187.245V221.354Z" fill="#FFDDDD" fill-opacity="0.3"/>
</g>
<path d="M738.945 339.906H793.542V277.51H738.945C720.854 277.51 706.188 291.478 706.188 308.708C706.188 325.938 720.854 339.906 738.945 339.906Z" fill="#FFB2B2" stroke="#FFB2B2" stroke-width="24.9583" stroke-linejoin="round"/>
<rect x="568.917" y="233.833" width="199.667" height="153.078" rx="13.3111" fill="#FFF3F3" fill-opacity="0.4"/>
</g>
</g>
<defs>
<filter id="filter0_b_218_1111" x="517.336" y="160.622" width="302.828" height="274.542" filterUnits="userSpaceOnUse" color-interpolation-filters="sRGB">
<feFlood flood-opacity="0" result="BackgroundImageFix"/>
<feGaussianBlur in="BackgroundImageFix" stdDeviation="13.3111"/>
<feComposite in2="SourceAlpha" operator="in" result="effect1_backgroundBlur_218_1111"/>
<feBlend mode="normal" in="SourceGraphic" in2="effect1_backgroundBlur_218_1111" result="shape"/>
</filter>
<linearGradient id="paint0_linear_218_1111" x1="102.98" y1="224.075" x2="305.25" y2="-255.715" gradientUnits="userSpaceOnUse">
<stop offset="0.118519" stop-color="#D4151C"/>
<stop offset="1" stop-color="#D35400"/>
</linearGradient>
<linearGradient id="paint1_linear_218_1111" x1="697" y1="138.5" x2="637.5" y2="259" gradientUnits="userSpaceOnUse">
<stop stop-color="#FF842B"/>
<stop offset="1" stop-color="#34FF48"/>
</linearGradient>
<clipPath id="clip0_218_1111">
<rect width="1140" height="285" rx="20" fill="white"/>
</clipPath>
<clipPath id="clip1_218_1111">
<rect width="299.5" height="299.5" fill="white" transform="translate(519 134)"/>
</clipPath>
</defs>
</svg>
