<svg width="20" height="20" viewBox="0 0 20 20" fill="none" xmlns="http://www.w3.org/2000/svg">
<g clip-path="url(#clip0_331_1367)">
<path d="M8.33984 0.0234299C6.76172 0.124992 4.875 0.386711 4.28125 0.589836C2.72656 1.12109 1.16797 2.66015 0.609375 4.21874C0.441406 4.68359 0.242188 5.91015 0.0898438 7.42187C-0.0117188 8.41015 -0.0117188 11.5898 0.0898438 12.5781C0.242188 14.0898 0.441406 15.3164 0.609375 15.7812C1.08203 17.0976 2.34766 18.4922 3.67188 19.1601C4.36719 19.5117 5.27734 19.6914 7.46094 19.9101C8.32812 19.9961 11.4609 20.0078 12.3242 19.9297C13.7031 19.8008 15.1875 19.5859 15.625 19.4492C16.0117 19.332 16.6953 18.9766 17.1094 18.6797C17.5859 18.3398 18.3477 17.582 18.6797 17.1094C19.2305 16.332 19.4688 15.7383 19.625 14.7851C19.9141 12.9922 19.9805 12.1016 19.9805 9.99999C19.9805 8.1914 19.9609 7.81249 19.8008 6.48437C19.5703 4.53906 19.3984 3.96093 18.793 3.06249C18.0273 1.92187 16.8789 0.996086 15.7422 0.593742C15.2812 0.433586 14.1484 0.253899 12.5781 0.0937424C12.0039 0.0351486 8.96094 -0.0156326 8.33984 0.0234299ZM13.5273 3.91796C14.2227 4.1328 14.7227 4.44921 15.2188 4.97265C15.8242 5.61718 16.1328 6.32031 16.2109 7.24609C16.2617 7.8164 16.2617 12.2461 16.2109 12.793C16.1641 13.332 16.0586 13.7109 15.8398 14.1601C15.418 15.0156 14.6641 15.6875 13.7617 16.0117C13.1602 16.2305 13.1562 16.2305 9.98047 16.2305C6.74609 16.2305 6.80859 16.2344 6.14453 15.9766C5.28906 15.6484 4.56641 14.9844 4.16016 14.1601C3.94141 13.7109 3.83594 13.332 3.78906 12.793C3.73828 12.2383 3.73828 7.8164 3.78906 7.22265C3.86719 6.27343 4.24609 5.47656 4.92578 4.82031C5.46484 4.30468 6.01562 4.01171 6.76172 3.84765C6.96484 3.80468 7.57422 3.79687 10.0977 3.80077L13.1836 3.80859L13.5273 3.91796Z" fill="url(#paint0_linear_331_1367)"/>
<path d="M6.84376 5.07811C5.98048 5.30467 5.25782 6.03514 5.0586 6.87889C4.97266 7.25389 4.97266 12.75 5.06251 13.125C5.26563 13.9883 5.98438 14.7187 6.85548 14.9414C7.05079 14.9922 7.52735 15 10 15C12.8242 15 12.9219 14.9961 13.2031 14.918C13.6445 14.7969 13.9258 14.6289 14.2774 14.2773C14.6289 13.9297 14.8359 13.5703 14.9375 13.125C15.0274 12.7461 15.0313 7.24217 14.9414 6.89452C14.7305 6.06248 14.1016 5.3867 13.2813 5.10545C13.0274 5.01952 13.0117 5.01952 10.0781 5.0117C7.26954 5.00389 7.11329 5.0078 6.84376 5.07811ZM13.5859 6.08983C14.1719 6.39061 14.1641 7.16795 13.5781 7.46873C13.3594 7.57811 13.0313 7.55467 12.8242 7.41014C12.3281 7.06639 12.3984 6.31639 12.9492 6.0703C13.1211 5.99608 13.418 6.00389 13.5859 6.08983ZM10.7578 6.89452C11.7109 7.14842 12.4414 7.74217 12.8867 8.62108C13.1172 9.07811 13.1836 9.40623 13.1797 10.039C13.1797 10.5664 13.1719 10.6289 13.0547 10.9765C12.7734 11.8281 12.1797 12.5078 11.3945 12.8906C10.0664 13.5312 8.41407 13.164 7.52735 12.0351C5.98048 10.0664 7.04298 7.28123 9.50782 6.83592C9.78126 6.78905 10.4766 6.8203 10.7578 6.89452Z" fill="url(#paint1_linear_331_1367)"/>
<path d="M9.54297 8.06638C8.66797 8.25778 8.00781 9.08982 8.00781 9.99997C8.00781 10.5429 8.20703 11.0234 8.58984 11.4101C8.99219 11.8125 9.42578 11.9883 10 11.9922C11.1133 11.9961 11.9922 11.1133 11.9922 9.99997C11.9922 9.07419 11.3359 8.25388 10.4414 8.06638C10.1172 7.99607 9.86328 7.99607 9.54297 8.06638Z" fill="url(#paint2_linear_331_1367)"/>
</g>
<defs>
<linearGradient id="paint0_linear_331_1367" x1="1.81734" y1="4.27922" x2="19.188" y2="14.5773" gradientUnits="userSpaceOnUse">
<stop offset="0.118519" stop-color="#D4151C"/>
<stop offset="1" stop-color="#D35400"/>
</linearGradient>
<linearGradient id="paint1_linear_331_1367" x1="5.89907" y1="7.14466" x2="14.5987" y2="12.3145" gradientUnits="userSpaceOnUse">
<stop offset="0.118519" stop-color="#D4151C"/>
<stop offset="1" stop-color="#D35400"/>
</linearGradient>
<linearGradient id="paint2_linear_331_1367" x1="8.36773" y1="8.86414" x2="11.8309" y2="10.9208" gradientUnits="userSpaceOnUse">
<stop offset="0.118519" stop-color="#D4151C"/>
<stop offset="1" stop-color="#D35400"/>
</linearGradient>
<clipPath id="clip0_331_1367">
<rect width="20" height="20" fill="white"/>
</clipPath>
</defs>
</svg>
