<svg width="134" height="56" viewBox="0 0 134 56" fill="none" xmlns="http://www.w3.org/2000/svg">
<path fill-rule="evenodd" clip-rule="evenodd" d="M18.293 7.01137L42.1092 7.01138L48.3965 17.8533H36.247L30.4322 27.9999L18.293 7.01137ZM48.3965 17.8533L60.5861 38.8734L36.7211 38.8734L48.3965 17.8533ZM0 17.1265H23.8649L12.1896 38.1466L0 17.1265ZM12.1896 38.1466H24.3391L30.1539 28.0001L42.2931 48.9886H18.4769L12.1896 38.1466Z" fill="url(#paint0_linear_14_36)"/>
<path d="M90.0163 8.45458V23H87.3601L81.032 13.8452H80.9254V23H77.8501V8.45458H80.549L86.8274 17.6023H86.9553V8.45458H90.0163ZM95.6112 23.206C94.9151 23.206 94.2949 23.0853 93.7504 22.8438C93.2058 22.5976 92.775 22.2354 92.4577 21.7571C92.1452 21.2742 91.989 20.6729 91.989 19.9532C91.989 19.3471 92.1003 18.8381 92.3228 18.4262C92.5453 18.0142 92.8484 17.6828 93.2319 17.4318C93.6154 17.1809 94.051 16.9915 94.5387 16.8637C95.0311 16.7358 95.5472 16.6459 96.087 16.5938C96.7215 16.5275 97.2328 16.4659 97.6211 16.4091C98.0094 16.3476 98.2911 16.2576 98.4663 16.1392C98.6415 16.0209 98.729 15.8457 98.729 15.6137V15.5711C98.729 15.1212 98.587 14.7732 98.3029 14.527C98.0236 14.2808 97.6258 14.1577 97.1097 14.1577C96.5652 14.1577 96.132 14.2784 95.81 14.5199C95.488 14.7567 95.275 15.055 95.1708 15.4148L92.3725 15.1875C92.5146 14.5247 92.7939 13.9517 93.2106 13.4688C93.6272 12.9811 94.1647 12.607 94.8228 12.3466C95.4857 12.0815 96.2527 11.9489 97.1239 11.9489C97.73 11.9489 98.31 12.0199 98.864 12.162C99.4227 12.304 99.9175 12.5242 100.348 12.8225C100.784 13.1208 101.127 13.5043 101.378 13.973C101.629 14.4371 101.755 14.9934 101.755 15.6421V23H98.8853V21.4872H98.8001C98.6249 21.8282 98.3905 22.1288 98.0969 22.3892C97.8034 22.6449 97.4506 22.8461 97.0387 22.9929C96.6268 23.135 96.1509 23.206 95.6112 23.206ZM96.4776 21.1179C96.9227 21.1179 97.3157 21.0303 97.6566 20.8551C97.9975 20.6752 98.265 20.4337 98.4592 20.1307C98.6533 19.8277 98.7504 19.4844 98.7504 19.1009V17.9432C98.6557 18.0048 98.5255 18.0616 98.3597 18.1137C98.1987 18.161 98.0165 18.206 97.8129 18.2486C97.6093 18.2865 97.4057 18.322 97.2021 18.3551C96.9985 18.3836 96.8138 18.4096 96.6481 18.4333C96.293 18.4854 95.9828 18.5682 95.7177 18.6818C95.4525 18.7955 95.2466 18.9494 95.0998 19.1435C94.953 19.3329 94.8796 19.5696 94.8796 19.8537C94.8796 20.2657 95.0288 20.5805 95.3271 20.7983C95.6301 21.0114 96.0136 21.1179 96.4776 21.1179ZM113.882 12.0909L110.068 23H106.659L102.845 12.0909H106.041L108.306 19.8963H108.42L110.679 12.0909H113.882ZM115.43 23V12.0909H118.456V23H115.43ZM116.95 10.6847C116.5 10.6847 116.114 10.5355 115.792 10.2372C115.475 9.93422 115.316 9.572 115.316 9.1506C115.316 8.73393 115.475 8.37645 115.792 8.07816C116.114 7.77512 116.5 7.62361 116.95 7.62361C117.4 7.62361 117.783 7.77512 118.1 8.07816C118.422 8.37645 118.583 8.73393 118.583 9.1506C118.583 9.572 118.422 9.93422 118.1 10.2372C117.783 10.5355 117.4 10.6847 116.95 10.6847ZM129.956 15.2017L127.186 15.3722C127.139 15.1354 127.037 14.9224 126.881 14.733C126.724 14.5389 126.518 14.385 126.263 14.2713C126.012 14.153 125.711 14.0938 125.361 14.0938C124.892 14.0938 124.497 14.1932 124.175 14.3921C123.853 14.5862 123.692 14.8466 123.692 15.1733C123.692 15.4337 123.796 15.6539 124.004 15.8338C124.213 16.0138 124.57 16.1582 125.077 16.2671L127.051 16.6648C128.112 16.8826 128.902 17.233 129.423 17.7159C129.944 18.1989 130.205 18.8334 130.205 19.6193C130.205 20.3343 129.994 20.9617 129.572 21.5015C129.156 22.0412 128.583 22.4626 127.854 22.7657C127.129 23.064 126.294 23.2131 125.347 23.2131C123.902 23.2131 122.752 22.9124 121.895 22.3111C121.043 21.705 120.543 20.8812 120.396 19.8395L123.372 19.6833C123.462 20.1236 123.68 20.4598 124.026 20.6918C124.371 20.9191 124.814 21.0327 125.354 21.0327C125.884 21.0327 126.31 20.9309 126.632 20.7273C126.959 20.519 127.125 20.2515 127.129 19.9247C127.125 19.6501 127.009 19.4252 126.781 19.25C126.554 19.0701 126.204 18.9328 125.73 18.8381L123.841 18.4617C122.776 18.2486 121.982 17.8793 121.462 17.3537C120.946 16.8282 120.688 16.1582 120.688 15.3438C120.688 14.643 120.877 14.0393 121.256 13.5327C121.639 13.0261 122.177 12.6354 122.868 12.3608C123.564 12.0862 124.378 11.9489 125.311 11.9489C126.689 11.9489 127.773 12.2401 128.564 12.8225C129.359 13.4049 129.823 14.1979 129.956 15.2017ZM80.3572 47H77.0618L82.0831 32.4546H86.0462L91.0604 47H87.7649L84.1214 35.7784H84.0078L80.3572 47ZM80.1513 41.2827H87.9354V43.6833H80.1513V41.2827ZM101.577 39.2017L98.8072 39.3722C98.7598 39.1354 98.658 38.9224 98.5018 38.733C98.3455 38.5389 98.1396 38.385 97.8839 38.2713C97.6329 38.153 97.3323 38.0938 96.9819 38.0938C96.5131 38.0938 96.1178 38.1932 95.7958 38.3921C95.4738 38.5862 95.3129 38.8466 95.3129 39.1733C95.3129 39.4337 95.417 39.6539 95.6254 39.8338C95.8337 40.0138 96.1912 40.1582 96.6978 40.2671L98.6722 40.6648C99.7328 40.8826 100.524 41.233 101.044 41.7159C101.565 42.1989 101.826 42.8334 101.826 43.6193C101.826 44.3343 101.615 44.9617 101.194 45.5015C100.777 46.0412 100.204 46.4626 99.4748 46.7657C98.7504 47.064 97.9147 47.2131 96.9677 47.2131C95.5236 47.2131 94.373 46.9124 93.516 46.3111C92.6637 45.705 92.1642 44.8812 92.0174 43.8395L94.9933 43.6833C95.0832 44.1236 95.301 44.4598 95.6467 44.6918C95.9923 44.9191 96.435 45.0327 96.9748 45.0327C97.5051 45.0327 97.9312 44.9309 98.2532 44.7273C98.5799 44.519 98.7456 44.2515 98.7504 43.9247C98.7456 43.6501 98.6296 43.4252 98.4023 43.25C98.1751 43.0701 97.8247 42.9328 97.3512 42.8381L95.462 42.4617C94.3967 42.2486 93.6036 41.8793 93.0827 41.3537C92.5666 40.8282 92.3086 40.1582 92.3086 39.3438C92.3086 38.643 92.498 38.0393 92.8768 37.5327C93.2603 37.0261 93.7977 36.6354 94.489 36.3608C95.185 36.0862 95.9994 35.9489 96.9322 35.9489C98.31 35.9489 99.3943 36.2401 100.185 36.8225C100.98 37.4049 101.444 38.1979 101.577 39.2017ZM112.808 39.2017L110.038 39.3722C109.99 39.1354 109.888 38.9224 109.732 38.733C109.576 38.5389 109.37 38.385 109.114 38.2713C108.863 38.153 108.563 38.0938 108.212 38.0938C107.744 38.0938 107.348 38.1932 107.026 38.3921C106.704 38.5862 106.543 38.8466 106.543 39.1733C106.543 39.4337 106.647 39.6539 106.856 39.8338C107.064 40.0138 107.422 40.1582 107.928 40.2671L109.903 40.6648C110.963 40.8826 111.754 41.233 112.275 41.7159C112.796 42.1989 113.056 42.8334 113.056 43.6193C113.056 44.3343 112.845 44.9617 112.424 45.5015C112.007 46.0412 111.434 46.4626 110.705 46.7657C109.981 47.064 109.145 47.2131 108.198 47.2131C106.754 47.2131 105.603 46.9124 104.746 46.3111C103.894 45.705 103.395 44.8812 103.248 43.8395L106.224 43.6833C106.314 44.1236 106.531 44.4598 106.877 44.6918C107.223 44.9191 107.665 45.0327 108.205 45.0327C108.736 45.0327 109.162 44.9309 109.484 44.7273C109.81 44.519 109.976 44.2515 109.981 43.9247C109.976 43.6501 109.86 43.4252 109.633 43.25C109.406 43.0701 109.055 42.9328 108.582 42.8381L106.692 42.4617C105.627 42.2486 104.834 41.8793 104.313 41.3537C103.797 40.8282 103.539 40.1582 103.539 39.3438C103.539 38.643 103.728 38.0393 104.107 37.5327C104.491 37.0261 105.028 36.6354 105.719 36.3608C106.415 36.0862 107.23 35.9489 108.163 35.9489C109.54 35.9489 110.625 36.2401 111.415 36.8225C112.211 37.4049 112.675 38.1979 112.808 39.2017ZM119.933 47.2131C118.811 47.2131 117.845 46.9858 117.035 46.5313C116.23 46.072 115.61 45.4233 115.174 44.5853C114.739 43.7425 114.521 42.7458 114.521 41.5952C114.521 40.473 114.739 39.4882 115.174 38.6407C115.61 37.7931 116.223 37.1326 117.014 36.6591C117.809 36.1856 118.742 35.9489 119.812 35.9489C120.532 35.9489 121.202 36.0649 121.822 36.2969C122.447 36.5242 122.992 36.8675 123.456 37.3267C123.924 37.786 124.289 38.3637 124.549 39.0597C124.81 39.751 124.94 40.5606 124.94 41.4887V42.3196H115.728V40.4446H122.092C122.092 40.009 121.997 39.6231 121.808 39.287C121.618 38.9508 121.356 38.688 121.02 38.4986C120.688 38.3045 120.302 38.2074 119.862 38.2074C119.403 38.2074 118.995 38.314 118.64 38.527C118.29 38.7354 118.015 39.0171 117.816 39.3722C117.618 39.7226 117.516 40.1132 117.511 40.5441V42.3267C117.511 42.8665 117.61 43.3329 117.809 43.7259C118.013 44.1189 118.299 44.4219 118.669 44.635C119.038 44.848 119.476 44.9546 119.983 44.9546C120.319 44.9546 120.627 44.9072 120.906 44.8125C121.185 44.7178 121.424 44.5758 121.623 44.3864C121.822 44.197 121.974 43.965 122.078 43.6904L124.876 43.875C124.734 44.5474 124.443 45.1345 124.002 45.6364C123.567 46.1336 123.003 46.5218 122.312 46.8012C121.626 47.0758 120.833 47.2131 119.933 47.2131ZM132.717 36.0909V38.3637H126.147V36.0909H132.717ZM127.639 33.4773H130.664V43.6478C130.664 43.9271 130.707 44.1449 130.792 44.3012C130.877 44.4527 130.996 44.5592 131.147 44.6208C131.304 44.6823 131.484 44.7131 131.687 44.7131C131.829 44.7131 131.971 44.7013 132.113 44.6776C132.255 44.6492 132.364 44.6279 132.44 44.6137L132.916 46.8651C132.764 46.9124 132.551 46.9669 132.277 47.0284C132.002 47.0947 131.668 47.135 131.275 47.1492C130.546 47.1776 129.907 47.0805 129.358 46.858C128.813 46.6354 128.389 46.2898 128.086 45.8211C127.783 45.3523 127.634 44.7604 127.639 44.0455V33.4773Z" fill="black"/>
<defs>
<linearGradient id="paint0_linear_14_36" x1="5.47294" y1="43.7426" x2="55.4014" y2="11.1277" gradientUnits="userSpaceOnUse">
<stop offset="0.118519" stop-color="#D4151C"/>
<stop offset="1" stop-color="#D35400"/>
</linearGradient>
</defs>
</svg>
