<svg width="20" height="16" viewBox="0 0 20 16" fill="none" xmlns="http://www.w3.org/2000/svg">
<path d="M0.80022 7.45246C2.74115 6.38338 4.90774 5.49106 6.93209 4.5942C10.4148 3.12523 13.9113 1.68171 17.4431 0.337809C18.1302 0.108836 19.3649 -0.11506 19.486 0.903234C19.4197 2.34468 19.147 3.77768 18.9599 5.21068C18.4852 8.36199 17.9364 11.5025 17.4013 14.6434C17.2169 15.6897 15.9063 16.2313 15.0677 15.5617C13.0523 14.2004 11.0215 12.8523 9.03184 11.4595C8.3801 10.7972 8.98447 9.84617 9.56654 9.37326C11.2265 7.73742 12.9868 6.34758 14.56 4.6272C14.9843 3.60249 13.7305 4.46608 13.3169 4.73072C11.0445 6.29668 8.82767 7.95826 6.43181 9.33454C5.20801 10.0082 3.78165 9.43251 2.5584 9.05661C1.46163 8.6025 -0.145587 8.14498 0.800109 7.45259L0.80022 7.45246Z" fill="url(#paint0_linear_107_815)"/>
<defs>
<linearGradient id="paint0_linear_107_815" x1="2.2275" y1="12.4974" x2="16.9738" y2="1.93879" gradientUnits="userSpaceOnUse">
<stop offset="0.118519" stop-color="#D4151C"/>
<stop offset="1" stop-color="#D35400"/>
</linearGradient>
</defs>
</svg>
