<svg width="20" height="16" viewBox="0 0 20 16" fill="none" xmlns="http://www.w3.org/2000/svg">
<path d="M0.800403 7.45243C2.74133 6.38334 4.90792 5.49103 6.93228 4.59417C10.415 3.1252 13.9115 1.68168 17.4433 0.337778C18.1304 0.108805 19.3651 -0.11509 19.4862 0.903204C19.4198 2.34465 19.1471 3.77765 18.9601 5.21065C18.4853 8.36196 17.9366 11.5025 17.4015 14.6434C17.2171 15.6897 15.9065 16.2312 15.0679 15.5617C13.0525 14.2004 11.0217 12.8523 9.03203 11.4594C8.38028 10.7972 8.98465 9.84614 9.56672 9.37323C11.2266 7.73739 12.987 6.34755 14.5602 4.62717C14.9845 3.60246 13.7307 4.46605 13.3171 4.73069C11.0447 6.29665 8.82785 7.95823 6.43199 9.33451C5.20819 10.0082 3.78183 9.43248 2.55858 9.05658C1.46181 8.60246 -0.145404 8.14495 0.800292 7.45256L0.800403 7.45243Z" fill="white"/>
</svg>
