<svg width="16" height="16" viewBox="0 0 16 16" fill="none" xmlns="http://www.w3.org/2000/svg">
<g clip-path="url(#clip0_331_584)">
<path fill-rule="evenodd" clip-rule="evenodd" d="M5.02208 12.1635C5.3191 12.3202 5.64989 12.402 5.98573 12.4019C7.10432 12.4019 8.01747 11.5121 8.0587 10.4031L8.06282 0.5H10.5336C10.5338 0.710339 10.5534 0.920212 10.592 1.12698H8.7829V1.12732H10.592H11.254C11.2537 1.95614 11.5541 2.75693 12.0995 3.38099C12.0997 3.38126 12.1 3.38153 12.1002 3.38179C12.6566 3.74524 13.3069 3.9385 13.9715 3.93789V4.48818C14.2041 4.53799 14.4446 4.56452 14.6919 4.56452V7.03601C13.4583 7.03743 12.2556 6.65065 11.254 5.93047V10.9521C11.254 13.4597 9.21372 15.5 6.70581 15.5C6.08127 15.5002 5.46342 15.3713 4.89099 15.1215C4.31898 14.872 3.80465 14.507 3.38016 14.0495C3.37985 14.0493 3.37955 14.0491 3.37923 14.0489C2.20636 13.2254 1.4375 11.8635 1.4375 10.3251C1.4375 7.81723 3.47783 5.77656 5.98573 5.77656C6.19081 5.77754 6.39558 5.79246 6.59862 5.82122V6.40628C6.59862 6.40628 6.59863 6.40628 6.59862 6.40628L6.59862 8.34389C6.59862 8.34389 6.59862 8.34389 6.59862 8.34389L6.59862 6.40628C6.61289 6.406 6.62711 6.40551 6.64133 6.40502C6.66273 6.40427 6.68414 6.40353 6.70581 6.40353C6.91088 6.40451 7.11565 6.41943 7.3187 6.44819V8.97087C7.12494 8.91006 6.91984 8.87467 6.70581 8.87467C6.15507 8.87531 5.62707 9.0944 5.23767 9.48386C4.84826 9.87333 4.62926 10.4014 4.62872 10.9521C4.62875 11.3871 4.76623 11.811 5.02153 12.1632C5.02171 12.1633 5.02189 12.1634 5.02208 12.1635ZM7.67412 12.7889C8.31016 12.4515 8.75054 11.7924 8.77912 11.0298V11.0301C8.75054 11.7925 8.31016 12.4515 7.67412 12.7889ZM5.98592 8.2477C6.11308 8.24771 6.2372 8.26013 6.35777 8.28308C6.23533 8.25998 6.11086 8.24811 5.98592 8.2477ZM4.51771 8.85677C4.5177 8.85677 4.51771 8.85676 4.51771 8.85677V8.85677ZM2.45759 12.5749C2.66867 13.1249 2.98369 13.6238 3.37823 14.0478C2.97566 13.617 2.6648 13.1159 2.45759 12.5749ZM5.98574 14.873C5.98573 14.873 5.98574 14.873 5.98574 14.873V14.873ZM10.5336 10.3248V5.30315C10.5336 5.30315 10.5336 5.30315 10.5336 5.30315V10.3248Z" fill="url(#paint0_linear_331_584)"/>
</g>
<defs>
<linearGradient id="paint0_linear_331_584" x1="2.63482" y1="12.2934" x2="14.8615" y2="5.88667" gradientUnits="userSpaceOnUse">
<stop offset="0.118519" stop-color="#D4151C"/>
<stop offset="1" stop-color="#D35400"/>
</linearGradient>
<clipPath id="clip0_331_584">
<rect width="15" height="15" fill="white" transform="translate(0.5 0.5)"/>
</clipPath>
</defs>
</svg>
