<svg width="20" height="20" viewBox="0 0 20 20" fill="none" xmlns="http://www.w3.org/2000/svg">
<path fill-rule="evenodd" clip-rule="evenodd" d="M1.28365 18.8505L4.85258 17.9143L5.19691 18.1187C6.64469 18.9778 8.30428 19.4324 9.99636 19.4331H10.0002C15.1975 19.4331 19.4276 15.2029 19.4297 10.0034C19.4307 7.48377 18.4508 5.11466 16.6705 3.33226C14.8901 1.54986 12.5225 0.567783 10.0039 0.56691C4.80254 0.56691 0.572376 4.79669 0.570312 9.99577C0.569582 11.7775 1.06812 13.5128 2.01204 15.0141L2.23625 15.3709L1.28365 18.8505ZM15.3281 12.4467C15.5258 12.5422 15.6593 12.6068 15.7163 12.7019C15.7871 12.8201 15.7871 13.3877 15.551 14.05C15.3147 14.7121 14.1822 15.3165 13.6375 15.3978C13.1492 15.4709 12.5311 15.5013 11.8521 15.2855C11.4403 15.1549 10.9124 14.9805 10.236 14.6884C7.57848 13.5408 5.78253 10.9651 5.4431 10.4783C5.41932 10.4442 5.40269 10.4204 5.39342 10.408L5.39113 10.4049C5.24112 10.2048 4.23591 8.86357 4.23591 7.4755C4.23591 6.16973 4.87732 5.48531 5.17256 5.17028C5.19279 5.14869 5.2114 5.12884 5.22806 5.11064C5.48789 4.82684 5.79502 4.75589 5.98399 4.75589C6.17295 4.75589 6.36214 4.75763 6.5273 4.76593C6.54768 4.76695 6.56888 4.76683 6.5908 4.7667C6.75599 4.76573 6.96194 4.76452 7.16511 5.25255C7.24327 5.44036 7.35764 5.7188 7.47827 6.01246C7.72219 6.60632 7.9917 7.26244 8.03912 7.35739C8.11 7.4993 8.15724 7.66478 8.06275 7.85405C8.04857 7.88243 8.03545 7.90921 8.02291 7.9348C7.95194 8.07969 7.89974 8.18627 7.77928 8.32691C7.73192 8.38222 7.68297 8.44183 7.63402 8.50145C7.53649 8.62022 7.43897 8.73898 7.35406 8.82357C7.21214 8.96493 7.06441 9.11829 7.22977 9.4021C7.39513 9.6859 7.96405 10.6142 8.80678 11.3659C9.71267 12.1739 10.5 12.5154 10.8991 12.6885C10.977 12.7223 11.0401 12.7497 11.0865 12.7729C11.3698 12.9148 11.5352 12.8911 11.7006 12.7019C11.8659 12.5127 12.4092 11.8741 12.5982 11.5904C12.7871 11.3067 12.9762 11.354 13.236 11.4485C13.4959 11.5432 14.8896 12.2289 15.173 12.3708C15.2284 12.3985 15.2801 12.4235 15.3281 12.4467Z" fill="url(#paint0_linear_107_811)"/>
<defs>
<linearGradient id="paint0_linear_107_811" x1="2.27394" y1="15.4" x2="18.6819" y2="5.67352" gradientUnits="userSpaceOnUse">
<stop offset="0.118519" stop-color="#D4151C"/>
<stop offset="1" stop-color="#D35400"/>
</linearGradient>
</defs>
</svg>
